<svg width="30" height="30" viewBox="0 0 30 30" fill="none" xmlns="http://www.w3.org/2000/svg">
<g clip-path="url(#clip0_51_126)">
<path d="M9.17375 18.3737C8.905 18.6437 8.74875 19.0237 8.75 19.4262C8.75 19.8275 8.91 20.2062 9.19625 20.49L12.2937 23.2862C12.55 23.5187 12.57 23.9125 12.3388 24.1687C12.1075 24.4262 11.7113 24.4437 11.4563 24.2137L8.33875 21.3975C7.7925 20.8587 7.5025 20.1675 7.5 19.43C7.4975 18.6925 7.78375 17.9975 8.30625 17.4762L11.45 14.5437C11.7013 14.3087 12.0988 14.3225 12.3325 14.5737C12.5675 14.8262 12.555 15.2225 12.3025 15.4562L9.17375 18.3737ZM30 6.875V23.125C30 26.2262 27.4762 28.75 24.375 28.75H5.625C2.52375 28.75 0 26.2262 0 23.125V6.875C0 3.77375 2.52375 1.25 5.625 1.25H24.375C27.4762 1.25 30 3.77375 30 6.875ZM1.25 6.875V10H28.75V6.875C28.75 4.4625 26.7875 2.5 24.375 2.5H5.625C3.2125 2.5 1.25 4.4625 1.25 6.875ZM28.75 23.125V11.25H1.25V23.125C1.25 25.5375 3.2125 27.5 5.625 27.5H24.375C26.7875 27.5 28.75 25.5375 28.75 23.125ZM5 7.5C5.69 7.5 6.25 6.94 6.25 6.25C6.25 5.56 5.69 5 5 5C4.31 5 3.75 5.56 3.75 6.25C3.75 6.94 4.31 7.5 5 7.5ZM8.75 7.5C9.44 7.5 10 6.94 10 6.25C10 5.56 9.44 5 8.75 5C8.06 5 7.5 5.56 7.5 6.25C7.5 6.94 8.06 7.5 8.75 7.5ZM12.5 7.5C13.19 7.5 13.75 6.94 13.75 6.25C13.75 5.56 13.19 5 12.5 5C11.81 5 11.25 5.56 11.25 6.25C11.25 6.94 11.81 7.5 12.5 7.5ZM18.5513 14.5437C18.3012 14.3087 17.9025 14.3225 17.6688 14.5737C17.4338 14.8262 17.4463 15.2225 17.6987 15.4562L20.81 18.3587C21.095 18.6437 21.2512 19.0225 21.25 19.4262C21.25 19.8275 21.09 20.2062 20.8237 20.47L17.7062 23.2862C17.45 23.5187 17.43 23.9125 17.6612 24.1687C17.8925 24.4262 18.2875 24.4437 18.5438 24.2137L21.6825 21.3775C22.2075 20.8587 22.4975 20.1662 22.5 19.4287C22.5025 18.6912 22.2163 17.9962 21.6788 17.46L18.5513 14.5425V14.5437Z" fill="#565656"/>
</g>
<defs>
<clipPath id="clip0_51_126">
<rect width="30" height="30" fill="white"/>
</clipPath>
</defs>
</svg>
