<svg width="10" height="10" viewBox="0 0 10 10" fill="none" xmlns="http://www.w3.org/2000/svg">
<g clip-path="url(#clip0_40_2567)">
<path d="M8.74998 2.5H6.24998C6.01957 2.5 5.83332 2.68625 5.83332 2.91667C5.83332 3.14708 6.01957 3.33333 6.24998 3.33333H8.57748L5.84332 6.0675C5.60832 6.3025 5.22582 6.3025 4.9904 6.0675L3.93248 5.00958C3.37248 4.44958 2.46123 4.44958 1.90123 5.00958L0.122065 6.78875C-0.0408512 6.95167 -0.0408512 7.215 0.122065 7.37792C0.203315 7.45917 0.309982 7.5 0.416649 7.5C0.523315 7.5 0.629982 7.45917 0.711232 7.37792L2.4904 5.59875C2.71832 5.37083 3.1154 5.37083 3.34332 5.59875L4.40123 6.65667C4.96123 7.21667 5.87248 7.21667 6.43248 6.65667L9.16707 3.9225V6.25C9.16707 6.48042 9.35332 6.66667 9.58373 6.66667C9.81415 6.66667 10.0004 6.48042 10.0004 6.25V3.75C10.0004 3.06083 9.43915 2.5 8.74998 2.5Z" fill="black"/>
</g>
<defs>
<clipPath id="clip0_40_2567">
<rect width="10" height="10" fill="white"/>
</clipPath>
</defs>
</svg>
