<svg width="29" height="29" viewBox="0 0 29 29" fill="none" xmlns="http://www.w3.org/2000/svg">
<path d="M20.7605 9.74543C21.5613 9.74543 22.2105 9.09624 22.2105 8.29542C22.2105 7.49461 21.5613 6.84542 20.7605 6.84542C19.9597 6.84542 19.3105 7.49461 19.3105 8.29542C19.3105 9.09624 19.9597 9.74543 20.7605 9.74543Z" fill="white"/>
<path d="M14.4999 20.5416C11.1679 20.5416 8.45825 17.8319 8.45825 14.4999C8.45825 11.1679 11.1679 8.45825 14.4999 8.45825C17.8319 8.45825 20.5416 11.1679 20.5416 14.4999C20.5416 17.8319 17.8319 20.5416 14.4999 20.5416ZM14.4999 11.4791C12.834 11.4791 11.4791 12.834 11.4791 14.4999C11.4791 16.1659 12.834 17.5208 14.4999 17.5208C16.1659 17.5208 17.5208 16.1659 17.5208 14.4999C17.5208 12.834 16.1659 11.4791 14.4999 11.4791Z" fill="white"/>
<path d="M20.5415 26.5832H8.45818C5.35276 26.5832 2.4165 23.6469 2.4165 20.5415V8.45818C2.4165 5.35276 5.35276 2.4165 8.45818 2.4165H20.5415C23.6469 2.4165 26.5832 5.35276 26.5832 8.45818V20.5415C26.5832 23.6469 23.6469 26.5832 20.5415 26.5832ZM8.45818 5.43734C7.04593 5.43734 5.43734 7.04593 5.43734 8.45818V20.5415C5.43734 21.9809 7.01875 23.5624 8.45818 23.5624H20.5415C21.9538 23.5624 23.5624 21.9538 23.5624 20.5415V8.45818C23.5624 7.04593 21.9538 5.43734 20.5415 5.43734H8.45818Z" fill="white"/>
</svg>
