<svg width="29" height="29" viewBox="0 0 29 29" fill="none" xmlns="http://www.w3.org/2000/svg">
<path d="M26.5836 14.5025C26.5841 12.1931 25.9229 9.93208 24.6782 7.98694C23.4335 6.04181 21.6575 4.49408 19.5605 3.52703C17.4634 2.55997 15.1331 2.2141 12.8455 2.53034C10.558 2.8466 8.409 3.81173 6.65298 5.31148C4.89694 6.81121 3.60746 8.78275 2.93717 10.9926C2.2669 13.2026 2.24391 15.5582 2.87094 17.7807C3.49797 20.0033 4.74875 21.9996 6.47517 23.5333C8.2016 25.0671 10.3314 26.074 12.6123 26.4348V17.9946H9.54465V14.5025H12.6123V11.8396C12.5462 11.218 12.6177 10.5894 12.8217 9.99854C13.0257 9.40763 13.3571 8.86882 13.7925 8.42029C14.2278 7.97176 14.7566 7.62449 15.3412 7.40309C15.9258 7.1817 16.552 7.09159 17.1752 7.13918C18.0816 7.15108 18.9858 7.22984 19.8804 7.3748V10.3518H18.3579C18.0986 10.3179 17.835 10.3428 17.5864 10.4245C17.338 10.5063 17.1112 10.6428 16.9225 10.8241C16.734 11.0054 16.5887 11.2268 16.4972 11.4718C16.4059 11.7169 16.3707 11.9794 16.3944 12.2399V14.5055H19.7459L19.2098 17.9976H16.3883V26.4423C19.2313 25.9925 21.8204 24.5428 23.6894 22.3539C25.5585 20.165 26.5849 17.3807 26.5836 14.5025Z" fill="white"/>
</svg>
