<svg width="29" height="29" viewBox="0 0 29 29" fill="none" xmlns="http://www.w3.org/2000/svg">
<path d="M25.5265 2.4165H3.47442C2.87025 2.4165 2.41712 2.86963 2.41712 3.47379V25.677C2.41712 26.1301 2.87025 26.5832 3.47442 26.5832H25.6776C26.2817 26.5832 26.7349 26.1301 26.7349 25.5259V3.47379C26.5838 2.86963 26.1307 2.4165 25.5265 2.4165ZM9.51609 22.9582H6.04213V11.479H9.66713V22.9582H9.51609ZM7.85463 9.9686C6.6463 9.9686 5.74005 8.9113 5.74005 7.85401C5.74005 6.64567 6.6463 5.73942 7.85463 5.73942C9.06297 5.73942 9.96922 6.64567 9.96922 7.85401C9.81818 8.9113 8.91193 9.9686 7.85463 9.9686ZM22.9588 22.9582H19.3338V17.3696C19.3338 16.0103 19.3338 14.3488 17.5213 14.3488C15.7088 14.3488 15.4067 15.8592 15.4067 17.3696V23.1092H11.7817V11.479H15.2557V12.9894C15.7088 12.0832 16.9171 11.1769 18.5786 11.1769C22.2036 11.1769 22.8078 13.5936 22.8078 16.6144V22.9582H22.9588Z" fill="white"/>
</svg>
