<svg width="29" height="29" viewBox="0 0 29 29" fill="none" xmlns="http://www.w3.org/2000/svg">
<path d="M26.5835 7.09861C25.6772 7.55174 24.771 7.70278 23.7137 7.85382C24.771 7.24966 25.5262 6.34341 25.8283 5.13507C24.922 5.73924 23.8647 6.04132 22.6564 6.34341C21.7501 5.43716 20.3908 4.83299 19.0314 4.83299C16.4637 4.83299 14.198 7.09861 14.198 9.81736C14.198 10.2705 14.198 10.5726 14.3491 10.8747C10.271 10.7236 6.49493 8.76007 4.07826 5.73924C3.62514 6.49445 3.4741 7.24966 3.4741 8.30695C3.4741 9.9684 4.38035 11.4788 5.73972 12.3851C4.98451 12.3851 4.22931 12.083 3.4741 11.7809C3.4741 14.1976 5.13556 16.1611 7.40118 16.6142C6.94805 16.7653 6.49493 16.7653 6.0418 16.7653C5.73972 16.7653 5.43764 16.7653 5.13556 16.6142C5.73972 18.5778 7.55222 20.0882 9.81784 20.0882C8.15639 21.4476 6.0418 22.2028 3.62514 22.2028C3.17201 22.2028 2.86993 22.2028 2.41681 22.2028C4.68243 23.5621 7.25014 24.4684 9.96889 24.4684C19.0314 24.4684 24.0158 16.9163 24.0158 10.4215C24.0158 10.2705 24.0158 9.9684 24.0158 9.81736C25.073 9.06216 25.9793 8.15591 26.5835 7.09861Z" fill="white"/>
</svg>
