<svg width="19" height="19" viewBox="0 0 19 19" fill="none" xmlns="http://www.w3.org/2000/svg">
<g clip-path="url(#clip0_0_5)">
<path d="M8.69541 17.2188C4.44783 17.2188 0.989624 13.5771 0.989624 9.10417C0.989624 4.63125 4.44783 0.989586 8.69541 0.989586C12.943 0.989586 16.4012 4.63125 16.4012 9.10417C16.4012 13.5771 12.943 17.2188 8.69541 17.2188ZM8.69541 2.17709C5.06429 2.17709 2.1173 5.28834 2.1173 9.10417C2.1173 12.92 5.06429 16.0313 8.69541 16.0313C12.3265 16.0313 15.2735 12.92 15.2735 9.10417C15.2735 5.28834 12.3265 2.17709 8.69541 2.17709Z" fill="#222222"/>
<path d="M17.4166 18.0103C17.2661 18.0103 17.1157 17.9549 16.997 17.8362L15.4136 16.2528C15.1841 16.0233 15.1841 15.6433 15.4136 15.4137C15.6432 15.1841 16.0232 15.1841 16.2528 15.4137L17.8361 16.997C18.0657 17.2266 18.0657 17.6066 17.8361 17.8362C17.7174 17.9549 17.567 18.0103 17.4166 18.0103Z" fill="#222222"/>
</g>
<defs>
<clipPath id="clip0_0_5">
<rect width="19" height="19" fill="white"/>
</clipPath>
</defs>
</svg>
