<svg width="25" height="25" viewBox="0 0 25 25" fill="none" xmlns="http://www.w3.org/2000/svg">
<path d="M20.3125 4.16667H18.6969C18.4344 1.82917 16.4688 0 14.0625 0H10.9375C8.53125 0 6.56562 1.82917 6.30312 4.16667H4.6875C2.10312 4.16667 0 6.26979 0 8.85417V20.3125C0 22.8969 2.10312 25 4.6875 25H20.3125C22.8969 25 25 22.8969 25 20.3125V8.85417C25 6.26979 22.8969 4.16667 20.3125 4.16667ZM10.9375 1.04167H14.0625C15.8937 1.04167 17.4 2.40417 17.6552 4.16667H7.34479C7.6 2.40417 9.10625 1.04167 10.9375 1.04167ZM23.9583 20.3125C23.9583 22.3229 22.3229 23.9583 20.3125 23.9583H18.75V7.8125C18.75 7.525 18.5167 7.29167 18.2292 7.29167C17.9417 7.29167 17.7083 7.525 17.7083 7.8125V23.9583H7.29167V7.8125C7.29167 7.525 7.05833 7.29167 6.77083 7.29167C6.48333 7.29167 6.25 7.525 6.25 7.8125V23.9583H4.6875C2.67708 23.9583 1.04167 22.3229 1.04167 20.3125V8.85417C1.04167 6.84375 2.67708 5.20833 4.6875 5.20833H20.3125C22.3229 5.20833 23.9583 6.84375 23.9583 8.85417V20.3125Z" fill="#074BEC"/>
</svg>
