<svg width="25" height="25" viewBox="0 0 25 25" fill="none" xmlns="http://www.w3.org/2000/svg">
<path d="M12.5 13.5364C16.8792 13.5364 18.7479 11.6676 18.7479 7.28844C18.7479 2.90928 16.8802 1.04053 12.5 1.04053C8.11982 1.04053 6.25211 2.90928 6.25211 7.28844C6.25211 11.6676 8.11982 13.5364 12.5 13.5364ZM12.5 2.08324C16.2948 2.08324 17.7063 3.49365 17.7063 7.28949C17.7063 11.0853 16.2948 12.4957 12.5 12.4957C8.70524 12.4957 7.29378 11.0853 7.29378 7.28949C7.29378 3.49365 8.70524 2.08324 12.5 2.08324ZM12.5 14.578C6.0792 14.578 3.27919 17.2218 3.1344 23.4166C3.12815 23.7041 3.35524 23.9426 3.64274 23.9499C3.93232 23.9676 4.16878 23.7291 4.17607 23.4416C4.28753 18.677 5.98649 16.3812 10.0563 15.7864C10.4448 16.4426 10.8761 17.077 11.3511 17.6718C10.7542 19.2082 10.2198 20.8687 9.90732 22.1707C9.66982 23.0551 10.4209 23.9864 11.3334 23.9582L13.7115 23.953C14.6282 23.977 15.3761 23.0322 15.1271 22.1468C14.6761 20.3593 13.9959 18.5332 13.6354 17.6134C14.0886 17.0114 14.5032 16.3947 14.8854 15.777C18.9979 16.3582 20.7125 18.653 20.824 23.4416C20.8313 23.7291 21.0709 23.9562 21.3573 23.9499C21.6448 23.9437 21.8719 23.7051 21.8657 23.4166C21.7209 17.2218 18.9209 14.578 12.5 14.578ZM12.6302 17.2145C12.5188 17.3603 12.4907 17.5551 12.5604 17.7259C12.8667 18.4895 13.6313 20.4749 14.1188 22.402C14.1729 22.7155 13.9719 22.8947 13.7104 22.9114L11.3323 22.9166C11.0719 22.9009 10.8698 22.727 10.9219 22.4134C11.2427 21.0759 11.8073 19.3405 12.4334 17.7707C12.5032 17.5937 12.4719 17.3916 12.35 17.2457C11.9365 16.7478 11.5636 16.2124 11.2157 15.6634C11.6261 15.6364 12.05 15.6187 12.5021 15.6187C12.9302 15.6187 13.3334 15.6343 13.725 15.6582C13.3844 16.1822 13.025 16.7041 12.6323 17.2134L12.6302 17.2145Z" fill="#3E3E3E"/>
</svg>
