<svg width="30" height="30" viewBox="0 0 30 30" fill="none" xmlns="http://www.w3.org/2000/svg">
<path d="M30 9.37065V24.3707C30 27.4719 27.4762 29.9957 24.375 29.9957H5.625C2.52375 29.9957 0 27.4719 0 24.3707V8.12065C0 5.0194 2.52375 2.49565 5.625 2.49565H18.125C18.47 2.49565 18.75 2.77565 18.75 3.12065C18.75 3.46565 18.47 3.74565 18.125 3.74565H5.625C3.2125 3.74565 1.25 5.70815 1.25 8.12065V11.2457H9.375C9.72 11.2457 10 11.5257 10 11.8707C10 12.2156 9.72 12.4957 9.375 12.4957H1.25V24.3707C1.25 26.7832 3.2125 28.7457 5.625 28.7457H24.375C26.7875 28.7457 28.75 26.7832 28.75 24.3707V12.4957H26.875C26.53 12.4957 26.25 12.2156 26.25 11.8707C26.25 11.5257 26.53 11.2457 26.875 11.2457H28.75V9.37065C28.75 9.02565 29.03 8.74565 29.375 8.74565C29.72 8.74565 30 9.02565 30 9.37065ZM3.75 7.49565C3.75 8.18565 4.31 8.74565 5 8.74565C5.69 8.74565 6.25 8.18565 6.25 7.49565C6.25 6.80565 5.69 6.24565 5 6.24565C4.31 6.24565 3.75 6.80565 3.75 7.49565ZM6.875 23.7457C6.53 23.7457 6.25 24.0257 6.25 24.3707C6.25 24.7157 6.53 24.9957 6.875 24.9957H23.125C23.47 24.9957 23.75 24.7157 23.75 24.3707C23.75 24.0257 23.47 23.7457 23.125 23.7457H6.875ZM7.5 7.49565C7.5 8.18565 8.06 8.74565 8.75 8.74565C9.44 8.74565 10 8.18565 10 7.49565C10 6.80565 9.44 6.24565 8.75 6.24565C8.06 6.24565 7.5 6.80565 7.5 7.49565ZM13.75 7.49565C13.75 6.80565 13.19 6.24565 12.5 6.24565C11.81 6.24565 11.25 6.80565 11.25 7.49565C11.25 8.18565 11.81 8.74565 12.5 8.74565C13.19 8.74565 13.75 8.18565 13.75 7.49565ZM14.0662 12.5194C22.9725 2.1044 23.8162 1.1219 23.8625 1.0694C25.2887 -0.35185 27.56 -0.35185 28.955 1.0419C30.3487 2.4394 30.3413 4.71815 28.94 6.12315L18.725 17.1419C18.725 17.1419 18.7188 17.1457 18.715 17.1481C18.7025 17.3444 18.7037 17.5406 18.6663 17.7369C18.2712 19.7694 16.4037 21.2457 14.2275 21.2457H9.29C8.7175 21.2457 8.19375 20.9832 7.8525 20.5232C7.51375 20.0669 7.4125 19.4919 7.57625 18.9469C8.13125 17.1069 9.86625 12.8769 14.0638 12.5244C14.065 12.5231 14.065 12.5206 14.0675 12.5181L14.0662 12.5194ZM15.5688 12.6844C16.4163 12.9256 17.18 13.3969 17.7513 14.0907C18.105 14.5194 18.3475 15.0119 18.515 15.5294L21.145 12.6931C20.66 11.2656 19.4338 10.2769 17.8512 10.0169C17.165 10.8207 16.3988 11.7157 15.5688 12.6857V12.6844ZM16.7875 14.8869C16.19 14.1619 15.3112 13.7457 14.375 13.7457C10.7925 13.8882 9.26375 17.6831 8.77375 19.3081C8.66375 19.6394 8.9425 20.0056 9.29125 19.9956H14.2288C15.8088 19.9956 17.1588 18.9457 17.44 17.4994C17.6225 16.5619 17.3838 15.6094 16.7875 14.8869ZM18.7688 8.94315C20.2525 9.37565 21.43 10.3481 22.0775 11.6869L28.0387 5.2569C28.9713 4.3219 28.9775 2.8344 28.07 1.9244C27.1637 1.0194 25.6838 1.01815 24.7725 1.9244C24.765 1.9344 24.2887 2.48815 18.7688 8.94315Z" fill="#565656"/>
</svg>
