<svg width="31" height="30" viewBox="0 0 31 30" fill="none" xmlns="http://www.w3.org/2000/svg">
<path d="M25.0059 14.005L26.2562 12.6672V26.8743C26.2562 28.5984 24.8533 30 23.1304 30H3.12573C1.40283 30 0 28.5984 0 26.8743V6.86958C0 5.14543 1.40283 3.74385 3.12573 3.74385H18.2268C17.8942 4.12644 17.5329 4.54153 17.139 4.99414H3.12573C2.09174 4.99414 1.25029 5.83559 1.25029 6.86958V26.8743C1.25029 27.9083 2.09174 28.7497 3.12573 28.7497H23.1304C24.1644 28.7497 25.0059 27.9083 25.0059 26.8743V14.005ZM28.9593 6.1144L17.4753 18.3985C17.3291 20.6803 15.4449 22.497 13.1268 22.497H6.13769L6.25897 21.7693C6.31273 21.4467 7.61679 14.065 12.818 13.7724C23.8343 1.10448 23.8731 1.06572 23.8931 1.04572C25.2909 -0.350862 27.564 -0.347111 28.9593 1.04822C30.3534 2.44479 30.3534 4.71658 28.9593 6.1144ZM14.3346 13.9362C15.7287 14.3401 16.8277 15.4091 17.2728 16.7844L19.8597 14.0163C19.4571 12.5359 18.1743 11.4432 16.6427 11.2806C15.8287 12.2171 15.041 13.1235 14.3346 13.9362ZM16.2538 18.1222C16.2538 16.3981 14.851 14.9965 13.1281 14.9965C9.58475 14.9965 8.1044 19.4588 7.65429 21.2479H13.1281C14.851 21.2479 16.2538 19.8464 16.2538 18.1222ZM28.0741 1.93217C27.1664 1.02196 25.686 1.02196 24.7771 1.92967C24.6833 2.03595 21.0524 6.21068 17.5854 10.1991C19.0245 10.603 20.211 11.6319 20.8149 12.9973L28.0603 5.2467C28.9818 4.32273 28.9818 2.84114 28.0741 1.93342V1.93217Z" fill="#565656"/>
</svg>
